<?xml version="1.0" encoding="UTF-8"?>
<svg width="343px" height="194px" viewBox="0 0 343 194" version="1.1" xmlns="http://www.w3.org/2000/svg" xmlns:xlink="http://www.w3.org/1999/xlink">
    <!-- Generator: Sketch 55.2 (78181) - https://sketchapp.com -->
    <title>Group 3</title>
    <desc>Created with Sketch.</desc>
    <g id="Welcome" stroke="none" stroke-width="1" fill="none" fill-rule="evenodd">
        <g id="Artboard" transform="translate(-591.000000, -56.000000)">
            <g id="Group-3" transform="translate(589.000000, 53.000000)">
                <g id="leaf" transform="translate(238.225389, 56.222707) scale(-1, 1) rotate(-83.000000) translate(-238.225389, -56.222707) translate(187.883420, 10.794760)" fill-rule="nonzero">
                    <path d="M93.5319543,1.3646386 C93.9271606,0.606194964 94.8632202,0.311492729 95.6227572,0.706130066 C96.0058262,0.905149757 96.2883901,1.25492261 96.40231,1.67082274 C104.408643,28.7851294 100.03923,47.4793722 90.8489809,58.5700422 C87.29106,62.8929796 82.7340509,66.2875836 77.5703917,68.461491 C72.8136501,70.4759275 67.6504167,71.3498281 62.4946361,71.0130255 C52.6229973,70.3241112 43.6116135,65.059445 39.4295818,55.6272724 C38.3580959,53.2160723 37.6656333,50.6543317 37.3768942,48.0322047 C36.7928152,42.7766815 37.8204366,37.4677887 40.3239063,32.8080488 C43.0115643,27.835746 47.290907,23.9068081 52.4782019,21.6493379 C55.3726192,20.3759096 58.4469661,19.5583554 61.5917942,19.2253801 C85.6789336,16.5802894 93.5064022,1.3646386 93.5319543,1.3646386 Z" id="Path" stroke="#45B549" stroke-width="0.773838697" fill="#45B549"></path>
                    <path d="M94.8397776,0.109950726 C95.8200659,0.32003602 96.5065431,-0.0870792468 96.1266205,2.52633781 C95.746698,5.13975487 96.1200745,2.6432889 96.1115447,2.701368 C96.1115447,2.77272799 94.8499346,19.3520318 78.6553043,36.1295579 L78.5045459,36.2881356 C74.699879,40.1877607 72.5545866,42.4192027 68.0687296,45.5122618 L77.0668238,47.2933823 C77.8422379,47.4803058 77.9570079,48.4141379 77.3883261,49.9093028 C76.8196444,51.4044676 76.0013607,51.5207179 75.2830761,51.4481686 L62.5876285,49.0695023 C52.1189381,55.6946149 39.3719778,60.0425052 33.3301355,68.0828298 C29.7801698,72.8070305 28.1076648,74.8994005 26.5053052,78.9075327 C25.3805387,81.7210166 27.0100641,88.5148279 28.4726369,90.7105577 C29.9352098,92.9062875 0.543928326,57.0860155 0.00238640877,56.7853106 C-0.102930224,56.7268309 5.05915971,62.9598505 9.45556457,65.2100859 C12.6650846,66.8528316 16.4910289,66.3815949 20.530381,65.480812 C24.5697332,64.5800291 29.8750067,62.2242182 32.4047607,60.553471 C34.895116,58.9087443 45.3029707,52.9607121 49.2893875,51.3512246 C51.9469987,50.278233 55.8986897,47.9974028 61.1444606,44.5087341 C66.3819278,41.1964413 68.7838591,38.5570409 73.1596228,34.1705821 L72.6901315,23.5737962 C72.5840055,22.7838807 73.030231,22.1097736 74.689054,21.9062906 C76.3478771,21.7028077 77.0918431,23.3916107 77.0938268,23.4245156 L77.3456721,29.8214176 C90.8427181,14.6772424 92.609331,3.19343197 92.6172657,3.13000087 C92.6369039,2.33334589 93.8594893,-0.100134567 94.8397776,0.109950726 Z" id="Path" fill="#009549"></path>
                </g>
                <polyline id="Shape" stroke="#009549" stroke-width="2.8449234" stroke-linecap="round" stroke-linejoin="round" points="102.481865 122.340611 177.401887 71.0655022 250.810881 122.340611"></polyline>
                <path d="M2.61589183,170.142978 C2.61589183,166.560838 3.14613488,163.155499 4.20663687,159.92686 C5.26713886,156.69822 6.81073527,153.858474 8.83747241,151.407536 C10.8642096,148.956598 13.3504603,147.012374 16.2962991,145.574805 C19.242138,144.137235 22.6239103,143.418461 26.4417175,143.418461 C29.0340557,143.418461 31.5085232,143.795523 33.8651943,144.549658 C36.2218654,145.303793 38.3310544,146.411411 40.1928245,147.872547 C42.0545947,149.333683 43.6217575,151.10116 44.8943599,153.175031 C46.1669623,155.248901 47.0153511,157.605537 47.4395519,160.245009 L44.4701612,160.245009 C43.2918256,155.814467 41.1708535,152.350213 38.1071811,149.852141 C35.0435086,147.35407 31.178626,146.105053 26.5124172,146.105053 C23.1188109,146.105053 20.1258835,146.764911 17.5335453,148.084647 C14.9412071,149.404383 12.7731022,151.171859 11.0291656,153.38713 C9.28522896,155.602401 7.96551295,158.159351 7.06997793,161.058056 C6.17444292,163.956762 5.72668212,166.985039 5.72668212,170.142978 C5.72668212,173.348051 6.16265974,176.376328 7.03462804,179.2279 C7.90659635,182.079472 9.20274601,184.565722 10.9231159,186.686726 C12.6434858,188.80773 14.7998075,190.492725 17.3921457,191.74176 C19.9844839,192.990796 23.024544,193.615305 26.5124172,193.615305 C29.5289562,193.615305 32.2390873,193.120411 34.6428919,192.130609 C37.0466964,191.140807 39.0851863,189.750392 40.7584228,187.959322 C42.4316593,186.168252 43.6924594,184.011931 44.540861,181.490292 C45.3892626,178.968654 45.7427579,176.152475 45.6013577,173.041669 L27.0073157,173.041669 L27.0073157,170.355077 L48.2879493,170.355077 L48.2879493,195.1 L45.6013577,195.1 L45.6013577,184.353634 L45.4599581,184.353634 C44.8472236,186.191837 43.9281357,187.853265 42.7026667,189.337968 C41.4771977,190.822671 40.0278668,192.071688 38.3546303,193.085056 C36.6813938,194.098425 34.8196516,194.887898 32.7693477,195.453499 C30.7190439,196.0191 28.5862885,196.301896 26.3710177,196.301896 C22.5532105,196.301896 19.1714382,195.618472 16.2255994,194.251603 C13.2797605,192.884733 10.7935098,191.022991 8.76677264,188.66632 C6.74003549,186.309649 5.20822226,183.540602 4.17128698,180.359096 C3.1343517,177.17759 2.61589183,173.772251 2.61589183,170.142978 Z M59.0343157,166.820088 L59.2464151,166.820088 C59.576349,165.641753 60.1772911,164.534134 61.0492594,163.497199 C61.9212277,162.460263 62.9817138,161.564742 64.2307495,160.810607 C65.4797852,160.056472 66.8702003,159.479097 68.4020365,159.078462 C69.9338727,158.677828 71.5246018,158.501081 73.1742716,158.548214 L73.1742716,161.234806 C71.7602689,161.046272 70.1459735,161.18767 68.3313367,161.659004 C66.5167,162.130339 64.7845727,163.167258 63.1349029,164.769795 C62.475035,165.476796 61.8976593,166.16022 61.4027583,166.820088 C60.9078574,167.479956 60.4954462,168.210513 60.1655122,169.011781 C59.8355782,169.81305 59.5763483,170.708571 59.3878146,171.698373 C59.1992809,172.688175 59.0814492,173.866493 59.0343157,175.233362 L59.0343157,195.1 L56.3477241,195.1 L56.3477241,158.760313 L59.0343157,158.760313 L59.0343157,166.820088 Z M76.2143621,177.283656 L76.2143621,177.707854 C76.2143621,179.828858 76.4971584,181.855565 77.0627595,183.788035 C77.6283605,185.720506 78.4649662,187.417283 79.5726016,188.878419 C80.680237,190.339555 82.0706521,191.494307 83.7438886,192.342709 C85.4171251,193.19111 87.3613496,193.615305 89.5766204,193.615305 C93.2058939,193.615305 96.0809895,192.660867 98.2019935,190.751964 C100.322997,188.84306 101.784112,186.191845 102.58538,182.798238 L105.271971,182.798238 C104.470703,187.040246 102.738576,190.292404 100.075538,192.554808 C97.4124993,194.817212 93.8893288,195.948397 89.5059206,195.948397 C86.8193156,195.948397 84.474463,195.465287 82.4712926,194.499052 C80.4681221,193.532817 78.7949108,192.213101 77.4516082,190.539864 C76.1083057,188.866628 75.1067355,186.887054 74.4468676,184.601083 C73.7869997,182.315112 73.4570707,179.852427 73.4570707,177.212956 C73.4570707,174.667751 73.7987829,172.228633 74.4822175,169.895529 C75.1656521,167.562424 76.1907887,165.512151 77.5576579,163.744648 C78.9245271,161.977145 80.6330881,160.563163 82.6833919,159.502661 C84.7336958,158.442159 87.1492474,157.911916 89.9301193,157.911916 C92.4753241,157.911916 94.7259112,158.383243 96.6819482,159.325912 C98.6379852,160.26858 100.275847,161.552947 101.595583,163.17905 C102.915319,164.805153 103.916889,166.690461 104.600323,168.835032 C105.283758,170.979603 105.62547,173.277323 105.62547,175.72826 C105.62547,175.963928 105.613687,176.234941 105.59012,176.541308 C105.566554,176.847675 105.554771,177.095122 105.554771,177.283656 L76.2143621,177.283656 Z M102.868179,174.950563 C102.773912,172.970959 102.443983,171.097434 101.878382,169.32993 C101.312781,167.562427 100.476175,166.007048 99.3685398,164.663745 C98.2609044,163.320442 96.917622,162.248173 95.3386524,161.446905 C93.7596828,160.645637 91.9568564,160.245009 89.9301193,160.245009 C87.7619819,160.245009 85.8531069,160.65742 84.2034372,161.482255 C82.5537674,162.30709 81.1633523,163.391142 80.0321502,164.734445 C78.9009481,166.077747 78.0289928,167.64491 77.4162584,169.43598 C76.8035239,171.22705 76.4264621,173.065226 76.2850619,174.950563 L102.868179,174.950563 Z M112.907548,177.283656 L112.907548,177.707854 C112.907548,179.828858 113.190344,181.855565 113.755945,183.788035 C114.321546,185.720506 115.158152,187.417283 116.265787,188.878419 C117.373422,190.339555 118.763838,191.494307 120.437074,192.342709 C122.110311,193.19111 124.054535,193.615305 126.269806,193.615305 C129.899079,193.615305 132.774175,192.660867 134.895179,190.751964 C137.016183,188.84306 138.477297,186.191845 139.278565,182.798238 L141.965157,182.798238 C141.163889,187.040246 139.431761,190.292404 136.768723,192.554808 C134.105685,194.817212 130.582514,195.948397 126.199106,195.948397 C123.512501,195.948397 121.167648,195.465287 119.164478,194.499052 C117.161308,193.532817 115.488096,192.213101 114.144794,190.539864 C112.801491,188.866628 111.799921,186.887054 111.140053,184.601083 C110.480185,182.315112 110.150256,179.852427 110.150256,177.212956 C110.150256,174.667751 110.491968,172.228633 111.175403,169.895529 C111.858838,167.562424 112.883974,165.512151 114.250843,163.744648 C115.617713,161.977145 117.326274,160.563163 119.376577,159.502661 C121.426881,158.442159 123.842433,157.911916 126.623305,157.911916 C129.16851,157.911916 131.419097,158.383243 133.375134,159.325912 C135.331171,160.26858 136.969033,161.552947 138.288768,163.17905 C139.608504,164.805153 140.610074,166.690461 141.293509,168.835032 C141.976944,170.979603 142.318656,173.277323 142.318656,175.72826 C142.318656,175.963928 142.306873,176.234941 142.283306,176.541308 C142.259739,176.847675 142.247956,177.095122 142.247956,177.283656 L112.907548,177.283656 Z M139.561364,174.950563 C139.467098,172.970959 139.137169,171.097434 138.571567,169.32993 C138.005966,167.562427 137.169361,166.007048 136.061725,164.663745 C134.95409,163.320442 133.610808,162.248173 132.031838,161.446905 C130.452868,160.645637 128.650042,160.245009 126.623305,160.245009 C124.455167,160.245009 122.546292,160.65742 120.896623,161.482255 C119.246953,162.30709 117.856538,163.391142 116.725336,164.734445 C115.594134,166.077747 114.722178,167.64491 114.109444,169.43598 C113.496709,171.22705 113.119648,173.065226 112.978247,174.950563 L139.561364,174.950563 Z M148.540236,158.760313 L151.226828,158.760313 L151.226828,166.537289 L151.368228,166.537289 C151.839562,165.17042 152.511203,163.956753 153.383171,162.896251 C154.25514,161.835749 155.268493,160.928444 156.423262,160.174309 C157.578031,159.420174 158.838831,158.854582 160.2057,158.477514 C161.572569,158.100447 162.962984,157.911916 164.376987,157.911916 C166.497991,157.911916 168.300817,158.171146 169.78552,158.689614 C171.270223,159.208081 172.48389,159.891506 173.426559,160.739907 C174.369227,161.588309 175.111567,162.542746 175.653602,163.603248 C176.195636,164.66375 176.584481,165.73602 176.820148,166.820088 C177.055815,167.904157 177.197213,168.95286 177.244347,169.966228 C177.29148,170.979597 177.315047,171.863335 177.315047,172.61747 L177.315047,195.1 L174.628455,195.1 L174.628455,172.122572 C174.628455,171.227037 174.557756,170.095852 174.416356,168.728982 C174.274955,167.362113 173.862544,166.05418 173.179109,164.805145 C172.495675,163.556109 171.458755,162.48384 170.068319,161.588305 C168.677883,160.69277 166.757225,160.245009 164.306287,160.245009 C162.232417,160.245009 160.394241,160.622071 158.791704,161.376205 C157.189168,162.13034 155.822319,163.179043 154.691117,164.522345 C153.559915,165.865648 152.699743,167.46816 152.110575,169.32993 C151.521407,171.191701 151.226828,173.230191 151.226828,175.445461 L151.226828,195.1 L148.540236,195.1 L148.540236,158.760313 Z M207.574552,166.820088 L207.786651,166.820088 C208.116585,165.641753 208.717527,164.534134 209.589496,163.497199 C210.461464,162.460263 211.52195,161.564742 212.770986,160.810607 C214.020022,160.056472 215.410437,159.479097 216.942273,159.078462 C218.474109,158.677828 220.064838,158.501081 221.714508,158.548214 L221.714508,161.234806 C220.300505,161.046272 218.68621,161.18767 216.871573,161.659004 C215.056936,162.130339 213.324809,163.167258 211.675139,164.769795 C211.015271,165.476796 210.437896,166.16022 209.942995,166.820088 C209.448094,167.479956 209.035682,168.210513 208.705749,169.011781 C208.375815,169.81305 208.116585,170.708571 207.928051,171.698373 C207.739517,172.688175 207.621685,173.866493 207.574552,175.233362 L207.574552,195.1 L204.88796,195.1 L204.88796,158.760313 L207.574552,158.760313 L207.574552,166.820088 Z M221.997307,176.930157 C221.997307,174.337819 222.362586,171.898701 223.093154,169.61273 C223.823722,167.326759 224.895991,165.311835 226.309994,163.567898 C227.723996,161.823962 229.467907,160.44533 231.541777,159.431961 C233.615648,158.418593 235.99585,157.911916 238.682455,157.911916 C241.36906,157.911916 243.749262,158.418593 245.823133,159.431961 C247.897003,160.44533 249.640914,161.823962 251.054916,163.567898 C252.468919,165.311835 253.541188,167.326759 254.271756,169.61273 C255.002324,171.898701 255.367603,174.337819 255.367603,176.930157 C255.367603,179.522495 255.002324,181.973396 254.271756,184.282934 C253.541188,186.592471 252.468919,188.607395 251.054916,190.327765 C249.640914,192.048135 247.897003,193.414984 245.823133,194.428352 C243.749262,195.441721 241.36906,195.948397 238.682455,195.948397 C235.99585,195.948397 233.615648,195.441721 231.541777,194.428352 C229.467907,193.414984 227.723996,192.048135 226.309994,190.327765 C224.895991,188.607395 223.823722,186.592471 223.093154,184.282934 C222.362586,181.973396 221.997307,179.522495 221.997307,176.930157 Z M224.683899,176.930157 C224.683899,179.098294 224.990261,181.183917 225.602996,183.187087 C226.21573,185.190258 227.111252,186.969518 228.289587,188.524921 C229.467923,190.080323 230.929037,191.317557 232.672974,192.236659 C234.41691,193.155761 236.420051,193.615305 238.682455,193.615305 C240.944859,193.615305 242.948,193.155761 244.691936,192.236659 C246.435873,191.317557 247.896987,190.080323 249.075323,188.524921 C250.253658,186.969518 251.14918,185.190258 251.761914,183.187087 C252.374649,181.183917 252.681011,179.098294 252.681011,176.930157 C252.681011,174.762019 252.374649,172.676397 251.761914,170.673226 C251.14918,168.670056 250.253658,166.890796 249.075323,165.335393 C247.896987,163.77999 246.435873,162.542756 244.691936,161.623654 C242.948,160.704553 240.944859,160.245009 238.682455,160.245009 C236.420051,160.245009 234.41691,160.704553 232.672974,161.623654 C230.929037,162.542756 229.467923,163.77999 228.289587,165.335393 C227.111252,166.890796 226.21573,168.670056 225.602996,170.673226 C224.990261,172.676397 224.683899,174.762019 224.683899,176.930157 Z M259.963089,176.930157 C259.963089,174.337819 260.328367,171.898701 261.058935,169.61273 C261.789503,167.326759 262.861772,165.311835 264.275775,163.567898 C265.689778,161.823962 267.433688,160.44533 269.507559,159.431961 C271.581429,158.418593 273.961631,157.911916 276.648236,157.911916 C279.334842,157.911916 281.715044,158.418593 283.788914,159.431961 C285.862785,160.44533 287.606695,161.823962 289.020698,163.567898 C290.4347,165.311835 291.50697,167.326759 292.237538,169.61273 C292.968106,171.898701 293.333384,174.337819 293.333384,176.930157 C293.333384,179.522495 292.968106,181.973396 292.237538,184.282934 C291.50697,186.592471 290.4347,188.607395 289.020698,190.327765 C287.606695,192.048135 285.862785,193.414984 283.788914,194.428352 C281.715044,195.441721 279.334842,195.948397 276.648236,195.948397 C273.961631,195.948397 271.581429,195.441721 269.507559,194.428352 C267.433688,193.414984 265.689778,192.048135 264.275775,190.327765 C262.861772,188.607395 261.789503,186.592471 261.058935,184.282934 C260.328367,181.973396 259.963089,179.522495 259.963089,176.930157 Z M262.64968,176.930157 C262.64968,179.098294 262.956043,181.183917 263.568777,183.187087 C264.181512,185.190258 265.077033,186.969518 266.255369,188.524921 C267.433704,190.080323 268.894819,191.317557 270.638755,192.236659 C272.382692,193.155761 274.385832,193.615305 276.648236,193.615305 C278.910641,193.615305 280.913781,193.155761 282.657718,192.236659 C284.401654,191.317557 285.862768,190.080323 287.041104,188.524921 C288.21944,186.969518 289.114961,185.190258 289.727696,183.187087 C290.34043,181.183917 290.646793,179.098294 290.646793,176.930157 C290.646793,174.762019 290.34043,172.676397 289.727696,170.673226 C289.114961,168.670056 288.21944,166.890796 287.041104,165.335393 C285.862768,163.77999 284.401654,162.542756 282.657718,161.623654 C280.913781,160.704553 278.910641,160.245009 276.648236,160.245009 C274.385832,160.245009 272.382692,160.704553 270.638755,161.623654 C268.894819,162.542756 267.433704,163.77999 266.255369,165.335393 C265.077033,166.890796 264.181512,168.670056 263.568777,170.673226 C262.956043,172.676397 262.64968,174.762019 262.64968,176.930157 Z M295.666477,161.093406 L295.666477,158.760313 L302.170857,158.760313 L302.170857,151.266137 C302.170857,149.993534 302.382954,148.897699 302.807155,147.978597 C303.231356,147.059495 303.808731,146.317155 304.539299,145.751554 C305.269867,145.185953 306.118256,144.761759 307.084491,144.478958 C308.050727,144.196157 309.075863,144.054759 310.159932,144.054759 C310.9612,144.054759 312.021686,144.172591 313.341422,144.408258 L313.341422,146.741351 C312.021686,146.505684 310.9612,146.387852 310.159932,146.387852 C308.651662,146.387852 307.390862,146.729564 306.377494,147.412999 C305.364125,148.096433 304.857448,149.451499 304.857448,151.478236 L304.857448,158.760313 L312.422325,158.760313 L312.422325,161.093406 L304.857448,161.093406 L304.857448,195.1 L302.170857,195.1 L302.170857,161.093406 L295.666477,161.093406 Z M317.936908,183.010338 C318.031174,184.707141 318.408236,186.203605 319.068104,187.499774 C319.727972,188.795943 320.588144,189.903562 321.648646,190.822663 C322.709148,191.741765 323.946382,192.436973 325.360384,192.908307 C326.774387,193.379641 328.3062,193.615305 329.95587,193.615305 C331.134206,193.615305 332.395006,193.509256 333.738308,193.297156 C335.081611,193.085055 336.330628,192.69621 337.485397,192.130609 C338.640165,191.565008 339.594603,190.775535 340.348738,189.762167 C341.102872,188.748798 341.479934,187.464432 341.479934,185.909029 C341.479934,183.882292 340.867209,182.350478 339.64174,181.313543 C338.416271,180.276608 336.872674,179.475352 335.010904,178.909751 C333.149134,178.344149 331.145994,177.884606 329.001423,177.531105 C326.856852,177.177604 324.853712,176.647361 322.991942,175.94036 C321.130172,175.233358 319.586575,174.231788 318.361106,172.935619 C317.135637,171.63945 316.522912,169.742358 316.522912,167.244287 C316.522912,165.453217 316.92354,163.956753 317.724808,162.754851 C318.526076,161.552949 319.551213,160.598511 320.800249,159.89151 C322.049284,159.184509 323.451483,158.677832 325.006886,158.371465 C326.562288,158.065097 328.117668,157.911916 329.673071,157.911916 C331.558408,157.911916 333.325885,158.124013 334.975554,158.548214 C336.625224,158.972415 338.050989,159.655839 339.252891,160.598508 C340.454793,161.541176 341.397448,162.74306 342.080882,164.204196 C342.764317,165.665333 343.106029,167.432809 343.106029,169.50668 L340.419437,169.50668 C340.419437,167.85701 340.148424,166.443029 339.60639,165.264693 C339.064356,164.086358 338.310232,163.13192 337.343997,162.401352 C336.377762,161.670784 335.234794,161.128758 333.915058,160.775257 C332.595322,160.421756 331.18134,160.245009 329.673071,160.245009 C328.447602,160.245009 327.210368,160.362841 325.961333,160.598508 C324.712297,160.834175 323.592895,161.234803 322.603093,161.800404 C321.613291,162.366005 320.800252,163.096562 320.163951,163.992097 C319.527649,164.887632 319.209504,165.971685 319.209504,167.244287 C319.209504,168.705423 319.562999,169.883741 320.27,170.779276 C320.977002,171.674811 321.907873,172.393585 323.062642,172.935619 C324.21741,173.477654 325.51356,173.913631 326.951129,174.243565 C328.388699,174.573499 329.83803,174.903428 331.299166,175.233362 C333.090236,175.563296 334.77523,175.952141 336.3542,176.399908 C337.93317,176.847676 339.300018,177.460401 340.454787,178.238103 C341.609556,179.015804 342.516861,180.017374 343.176729,181.242843 C343.836597,182.468312 344.166526,184.023692 344.166526,185.909029 C344.166526,187.888632 343.718765,189.514711 342.82323,190.787313 C341.927695,192.059916 340.79651,193.085052 339.42964,193.862754 C338.062771,194.640455 336.542741,195.182482 334.869505,195.488849 C333.196268,195.795216 331.558406,195.948397 329.95587,195.948397 C327.882,195.948397 325.961341,195.677384 324.193838,195.13535 C322.426335,194.593316 320.882738,193.768493 319.563003,192.660858 C318.243267,191.553222 317.206347,190.198157 316.452212,188.59562 C315.698077,186.993084 315.297449,185.131342 315.250316,183.010338 L317.936908,183.010338 Z" id="Greenroofs" fill="#45B549" fill-rule="nonzero"></path>
            </g>
        </g>
    </g>
</svg>