<?xml version="1.0" encoding="UTF-8"?>
<svg width="122px" height="85px" viewBox="0 0 122 85" version="1.1" xmlns="http://www.w3.org/2000/svg" xmlns:xlink="http://www.w3.org/1999/xlink">
    <!-- Generator: Sketch 55.2 (78181) - https://sketchapp.com -->
    <title>Artboard</title>
    <desc>Created with Sketch.</desc>
    <g id="Welcome" stroke="none" stroke-width="1" fill="none" fill-rule="evenodd">
        <g id="Artboard" transform="translate(-13.000000, -26.000000)">
            <g id="leaf" transform="translate(105.500000, 64.791961) scale(-1, 1) rotate(-83.000000) translate(-105.500000, -64.791961) translate(73.000000, 35.791961)" fill-rule="nonzero">
                <path d="M60.3827896,0.87114918 C60.6379286,0.386978829 61.2422343,0.198848718 61.7325797,0.450774754 C61.9798832,0.57782366 62.1623021,0.801109398 62.235847,1.06660904 C67.4046126,18.3756651 64.5837863,30.3095752 58.6507032,37.3895655 C56.3537643,40.1492144 53.4118294,42.3162398 50.0782505,43.7040048 C47.0073714,44.9899677 43.6740674,45.5478427 40.3455748,45.3328369 C33.9725968,44.8930522 28.1549862,41.5322286 25.4551309,35.5109792 C24.7633961,33.9717328 24.3163529,32.3363853 24.1299474,30.6624888 C23.752875,27.3075019 24.4162915,23.9184451 26.032493,20.9437905 C27.7676037,17.7696039 30.5302814,15.2614738 33.8791191,13.8203646 C35.7477104,13.0074416 37.7324614,12.4855367 39.762714,12.2729741 C55.3130003,10.5844181 60.3662935,0.87114918 60.3827896,0.87114918 Z" id="Path" stroke="#45B549" stroke-width="0.5" fill="#45B549"></path>
                <path d="M61.2271001,0.0701896352 C61.8599592,0.204302529 62.3031383,-0.0555890876 62.0578661,1.61274723 C61.812594,3.28108354 62.0536401,1.68740571 62.0481334,1.72448187 C62.0481334,1.7700362 61.2336573,12.3538252 50.7786534,23.064154 L50.6813261,23.1653858 C48.2250917,25.6548033 46.840124,27.0792969 43.9441237,29.0538239 L49.7531548,30.1908442 C50.2537502,30.3101712 50.327844,30.9063049 49.9607118,31.8607786 C49.5935796,32.8152523 49.0653082,32.8894634 48.6015948,32.8431498 L40.4056093,31.3246722 C33.6471839,35.5539688 25.4179426,38.329547 21.5174223,43.4622775 C19.2256191,46.4780822 18.1458756,47.8137959 17.1114169,50.3724815 C16.385285,52.1685352 17.4372815,56.5055246 18.381496,57.9072204 C19.3257105,59.3089162 0.351151752,36.4422022 0.00154062876,36.2502401 C-0.0664501679,36.2129082 3.26611561,40.191903 6.10436689,41.6283937 C8.17638358,42.6770792 10.6463543,42.3762542 13.2540979,41.8012182 C15.8618414,41.2261822 19.2868444,39.7222948 20.9200146,38.655734 C22.5277496,37.605784 29.2469003,33.8087176 31.8204696,32.7812634 C33.5361825,32.0962939 36.0873334,30.6402722 39.4739223,28.4131984 C42.8551505,26.2987183 44.4058003,24.6137949 47.230726,21.8135956 L46.9276297,15.0488878 C46.8591163,14.5446267 47.1471926,14.1142945 48.2181033,13.9843964 C49.2890139,13.8544983 49.7693069,14.9325855 49.7705875,14.9535911 L49.933175,19.0372041 C58.6466601,9.36956325 59.7871582,2.03860249 59.7922807,1.99810975 C59.8049588,1.48954629 60.5942411,-0.0639232588 61.2271001,0.0701896352 Z" id="Path" fill="#009549"></path>
            </g>
            <polyline id="Shape" stroke="#009549" stroke-width="1.82075097" stroke-linecap="round" stroke-linejoin="round" points="19 106.791961 66.9838824 73.7919609 114 106.791961"></polyline>
        </g>
    </g>
</svg>